<svg xmlns="http://www.w3.org/2000/svg" width="180" height="180"><g fill="none" fill-rule="evenodd"><path fill="#5F1522 " d="M35.2 80.4c30.5 0 40.7 24 57.3 22.4C109 101 56 123.3 56 123.3S18 127 18 90c0-7.4 12.7-9.6 17.2-9.6z"/><path fill="#F22146 " d="M90 180c49.7 0 90-40.3 90-90S139.7 0 90 0 0 40.3 0 90s40.3 90 90 90zm0-9c44.7 0 81-36.3 81-81S134.7 9 90 9 9 45.3 9 90s36.3 81 81 81zm72-79.2c0 39-32.8 70.2-72 70.2-39.8 0-72-32.2-72-72 9 14.7 24 24.6 40.3 25.2 19.4.8 39.7-11 48.3-31.6 6-14.2 16.7-19.5 27-19.5 13.8 0 28.4 11 28.4 28z"/></g></svg>
